<mxfile host="Electron" modified="2023-09-11T18:20:48.328Z" agent="Mozilla/5.0 (Windows NT 10.0; Win64; x64) AppleWebKit/537.36 (KHTML, like Gecko) draw.io/21.2.1 Chrome/112.0.5615.87 Electron/24.1.2 Safari/537.36" etag="fbIxAcxNBuNCp0YOR1fr" version="21.2.1" type="device">
  <diagram id="C5RBs43oDa-KdzZeNtuy" name="Page-1">
    <mxGraphModel dx="1647" dy="899" grid="1" gridSize="10" guides="1" tooltips="1" connect="1" arrows="1" fold="1" page="1" pageScale="1" pageWidth="1169" pageHeight="827" math="0" shadow="0">
      <root>
        <mxCell id="WIyWlLk6GJQsqaUBKTNV-0" />
        <mxCell id="WIyWlLk6GJQsqaUBKTNV-1" parent="WIyWlLk6GJQsqaUBKTNV-0" />
        <mxCell id="zkfFHV4jXpPFQw0GAbJ--0" value="Computadora" style="swimlane;fontStyle=0;align=center;verticalAlign=top;childLayout=stackLayout;horizontal=1;startSize=26;horizontalStack=0;resizeParent=1;resizeLast=0;collapsible=1;marginBottom=0;rounded=0;shadow=0;strokeWidth=1;fontSize=14;" parent="WIyWlLk6GJQsqaUBKTNV-1" vertex="1">
          <mxGeometry x="69" y="24" width="290" height="310" as="geometry">
            <mxRectangle x="230" y="140" width="160" height="26" as="alternateBounds" />
          </mxGeometry>
        </mxCell>
        <mxCell id="zkfFHV4jXpPFQw0GAbJ--1" value="idComputadora: number" style="text;align=left;verticalAlign=top;spacingLeft=4;spacingRight=4;overflow=hidden;rotatable=0;points=[[0,0.5],[1,0.5]];portConstraint=eastwest;" parent="zkfFHV4jXpPFQw0GAbJ--0" vertex="1">
          <mxGeometry y="26" width="290" height="26" as="geometry" />
        </mxCell>
        <mxCell id="uaT58myOgoMiZUyBuw0e-2" value="nombre: string  " style="text;align=left;verticalAlign=top;spacingLeft=4;spacingRight=4;overflow=hidden;rotatable=0;points=[[0,0.5],[1,0.5]];portConstraint=eastwest;" vertex="1" parent="zkfFHV4jXpPFQw0GAbJ--0">
          <mxGeometry y="52" width="290" height="26" as="geometry" />
        </mxCell>
        <mxCell id="uaT58myOgoMiZUyBuw0e-3" value="monitor: Monitor" style="text;align=left;verticalAlign=top;spacingLeft=4;spacingRight=4;overflow=hidden;rotatable=0;points=[[0,0.5],[1,0.5]];portConstraint=eastwest;" vertex="1" parent="zkfFHV4jXpPFQw0GAbJ--0">
          <mxGeometry y="78" width="290" height="26" as="geometry" />
        </mxCell>
        <mxCell id="uaT58myOgoMiZUyBuw0e-4" value="teclado: Teclado" style="text;align=left;verticalAlign=top;spacingLeft=4;spacingRight=4;overflow=hidden;rotatable=0;points=[[0,0.5],[1,0.5]];portConstraint=eastwest;" vertex="1" parent="zkfFHV4jXpPFQw0GAbJ--0">
          <mxGeometry y="104" width="290" height="26" as="geometry" />
        </mxCell>
        <mxCell id="zkfFHV4jXpPFQw0GAbJ--2" value="raton: Raton" style="text;align=left;verticalAlign=top;spacingLeft=4;spacingRight=4;overflow=hidden;rotatable=0;points=[[0,0.5],[1,0.5]];portConstraint=eastwest;rounded=0;shadow=0;html=0;" parent="zkfFHV4jXpPFQw0GAbJ--0" vertex="1">
          <mxGeometry y="130" width="290" height="26" as="geometry" />
        </mxCell>
        <mxCell id="zkfFHV4jXpPFQw0GAbJ--3" value="contadorComputadoras: number" style="text;align=left;verticalAlign=top;spacingLeft=4;spacingRight=4;overflow=hidden;rotatable=0;points=[[0,0.5],[1,0.5]];portConstraint=eastwest;rounded=0;shadow=0;html=0;fontStyle=4" parent="zkfFHV4jXpPFQw0GAbJ--0" vertex="1">
          <mxGeometry y="156" width="290" height="26" as="geometry" />
        </mxCell>
        <mxCell id="zkfFHV4jXpPFQw0GAbJ--4" value="" style="line;html=1;strokeWidth=1;align=left;verticalAlign=middle;spacingTop=-1;spacingLeft=3;spacingRight=3;rotatable=0;labelPosition=right;points=[];portConstraint=eastwest;" parent="zkfFHV4jXpPFQw0GAbJ--0" vertex="1">
          <mxGeometry y="182" width="290" height="8" as="geometry" />
        </mxCell>
        <mxCell id="zkfFHV4jXpPFQw0GAbJ--5" value="(agregar los métodos get/set de cada atributo)" style="text;align=left;verticalAlign=top;spacingLeft=4;spacingRight=4;overflow=hidden;rotatable=0;points=[[0,0.5],[1,0.5]];portConstraint=eastwest;" parent="zkfFHV4jXpPFQw0GAbJ--0" vertex="1">
          <mxGeometry y="190" width="290" height="30" as="geometry" />
        </mxCell>
        <mxCell id="uaT58myOgoMiZUyBuw0e-0" value="toString(): string" style="text;align=left;verticalAlign=top;spacingLeft=4;spacingRight=4;overflow=hidden;rotatable=0;points=[[0,0.5],[1,0.5]];portConstraint=eastwest;rounded=0;shadow=0;html=0;" vertex="1" parent="zkfFHV4jXpPFQw0GAbJ--0">
          <mxGeometry y="220" width="290" height="26" as="geometry" />
        </mxCell>
        <mxCell id="uaT58myOgoMiZUyBuw0e-6" value="" style="line;html=1;strokeWidth=1;align=left;verticalAlign=middle;spacingTop=-1;spacingLeft=3;spacingRight=3;rotatable=0;labelPosition=right;points=[];portConstraint=eastwest;" vertex="1" parent="zkfFHV4jXpPFQw0GAbJ--0">
          <mxGeometry y="246" width="290" height="8" as="geometry" />
        </mxCell>
        <mxCell id="uaT58myOgoMiZUyBuw0e-1" value="Responsabilidades:" style="text;align=left;verticalAlign=top;spacingLeft=4;spacingRight=4;overflow=hidden;rotatable=0;points=[[0,0.5],[1,0.5]];portConstraint=eastwest;rounded=0;shadow=0;html=0;" vertex="1" parent="zkfFHV4jXpPFQw0GAbJ--0">
          <mxGeometry y="254" width="290" height="26" as="geometry" />
        </mxCell>
        <mxCell id="uaT58myOgoMiZUyBuw0e-7" value="-- Crear objetos de tipo Computadora" style="text;align=left;verticalAlign=top;spacingLeft=4;spacingRight=4;overflow=hidden;rotatable=0;points=[[0,0.5],[1,0.5]];portConstraint=eastwest;rounded=0;shadow=0;html=0;" vertex="1" parent="zkfFHV4jXpPFQw0GAbJ--0">
          <mxGeometry y="280" width="290" height="26" as="geometry" />
        </mxCell>
        <mxCell id="uaT58myOgoMiZUyBuw0e-8" value="Orden" style="swimlane;fontStyle=0;align=center;verticalAlign=top;childLayout=stackLayout;horizontal=1;startSize=26;horizontalStack=0;resizeParent=1;resizeLast=0;collapsible=1;marginBottom=0;rounded=0;shadow=0;strokeWidth=1;fontSize=14;" vertex="1" parent="WIyWlLk6GJQsqaUBKTNV-1">
          <mxGeometry x="699" y="24" width="290" height="310" as="geometry">
            <mxRectangle x="230" y="140" width="160" height="26" as="alternateBounds" />
          </mxGeometry>
        </mxCell>
        <mxCell id="uaT58myOgoMiZUyBuw0e-9" value="_idOrden: number" style="text;align=left;verticalAlign=top;spacingLeft=4;spacingRight=4;overflow=hidden;rotatable=0;points=[[0,0.5],[1,0.5]];portConstraint=eastwest;" vertex="1" parent="uaT58myOgoMiZUyBuw0e-8">
          <mxGeometry y="26" width="290" height="26" as="geometry" />
        </mxCell>
        <mxCell id="uaT58myOgoMiZUyBuw0e-10" value="_computadoras: Computadora[]" style="text;align=left;verticalAlign=top;spacingLeft=4;spacingRight=4;overflow=hidden;rotatable=0;points=[[0,0.5],[1,0.5]];portConstraint=eastwest;" vertex="1" parent="uaT58myOgoMiZUyBuw0e-8">
          <mxGeometry y="52" width="290" height="26" as="geometry" />
        </mxCell>
        <mxCell id="uaT58myOgoMiZUyBuw0e-11" value="contadorOrdenes: number" style="text;align=left;verticalAlign=top;spacingLeft=4;spacingRight=4;overflow=hidden;rotatable=0;points=[[0,0.5],[1,0.5]];portConstraint=eastwest;fontStyle=4" vertex="1" parent="uaT58myOgoMiZUyBuw0e-8">
          <mxGeometry y="78" width="290" height="26" as="geometry" />
        </mxCell>
        <mxCell id="uaT58myOgoMiZUyBuw0e-15" value="" style="line;html=1;strokeWidth=1;align=left;verticalAlign=middle;spacingTop=-1;spacingLeft=3;spacingRight=3;rotatable=0;labelPosition=right;points=[];portConstraint=eastwest;" vertex="1" parent="uaT58myOgoMiZUyBuw0e-8">
          <mxGeometry y="104" width="290" height="8" as="geometry" />
        </mxCell>
        <mxCell id="uaT58myOgoMiZUyBuw0e-12" value="agregarComputadora(computadora)" style="text;align=left;verticalAlign=top;spacingLeft=4;spacingRight=4;overflow=hidden;rotatable=0;points=[[0,0.5],[1,0.5]];portConstraint=eastwest;" vertex="1" parent="uaT58myOgoMiZUyBuw0e-8">
          <mxGeometry y="112" width="290" height="26" as="geometry" />
        </mxCell>
        <mxCell id="uaT58myOgoMiZUyBuw0e-13" value="mostrarOrden()" style="text;align=left;verticalAlign=top;spacingLeft=4;spacingRight=4;overflow=hidden;rotatable=0;points=[[0,0.5],[1,0.5]];portConstraint=eastwest;rounded=0;shadow=0;html=0;" vertex="1" parent="uaT58myOgoMiZUyBuw0e-8">
          <mxGeometry y="138" width="290" height="26" as="geometry" />
        </mxCell>
        <mxCell id="uaT58myOgoMiZUyBuw0e-17" value="toString(): string" style="text;align=left;verticalAlign=top;spacingLeft=4;spacingRight=4;overflow=hidden;rotatable=0;points=[[0,0.5],[1,0.5]];portConstraint=eastwest;rounded=0;shadow=0;html=0;" vertex="1" parent="uaT58myOgoMiZUyBuw0e-8">
          <mxGeometry y="164" width="290" height="26" as="geometry" />
        </mxCell>
        <mxCell id="uaT58myOgoMiZUyBuw0e-23" value="(agregar los métodos get/set de cada atributo)" style="text;align=left;verticalAlign=top;spacingLeft=4;spacingRight=4;overflow=hidden;rotatable=0;points=[[0,0.5],[1,0.5]];portConstraint=eastwest;rounded=0;shadow=0;html=0;" vertex="1" parent="uaT58myOgoMiZUyBuw0e-8">
          <mxGeometry y="190" width="290" height="26" as="geometry" />
        </mxCell>
        <mxCell id="uaT58myOgoMiZUyBuw0e-18" value="" style="line;html=1;strokeWidth=1;align=left;verticalAlign=middle;spacingTop=-1;spacingLeft=3;spacingRight=3;rotatable=0;labelPosition=right;points=[];portConstraint=eastwest;" vertex="1" parent="uaT58myOgoMiZUyBuw0e-8">
          <mxGeometry y="216" width="290" height="8" as="geometry" />
        </mxCell>
        <mxCell id="uaT58myOgoMiZUyBuw0e-19" value="Responsabilidades:" style="text;align=left;verticalAlign=top;spacingLeft=4;spacingRight=4;overflow=hidden;rotatable=0;points=[[0,0.5],[1,0.5]];portConstraint=eastwest;rounded=0;shadow=0;html=0;" vertex="1" parent="uaT58myOgoMiZUyBuw0e-8">
          <mxGeometry y="224" width="290" height="26" as="geometry" />
        </mxCell>
        <mxCell id="uaT58myOgoMiZUyBuw0e-20" value="-- Crear objetos de tipo Orden&#xa;    y almacenar un arreglo de objetos&#xa;    de tipo Computadora." style="text;align=left;verticalAlign=top;spacingLeft=4;spacingRight=4;overflow=hidden;rotatable=0;points=[[0,0.5],[1,0.5]];portConstraint=eastwest;rounded=0;shadow=0;html=0;" vertex="1" parent="uaT58myOgoMiZUyBuw0e-8">
          <mxGeometry y="250" width="290" height="60" as="geometry" />
        </mxCell>
        <mxCell id="uaT58myOgoMiZUyBuw0e-21" style="edgeStyle=orthogonalEdgeStyle;rounded=0;orthogonalLoop=1;jettySize=auto;html=1;dashed=1;dashPattern=12 12;endArrow=diamondThin;endFill=0;strokeWidth=1;endSize=20;" edge="1" parent="WIyWlLk6GJQsqaUBKTNV-1" source="zkfFHV4jXpPFQw0GAbJ--2">
          <mxGeometry relative="1" as="geometry">
            <mxPoint x="699" y="167" as="targetPoint" />
            <Array as="points">
              <mxPoint x="649" y="167" />
              <mxPoint x="649" y="167" />
            </Array>
          </mxGeometry>
        </mxCell>
        <mxCell id="uaT58myOgoMiZUyBuw0e-22" value="&lt;font style=&quot;font-size: 13px;&quot;&gt;&amp;lt;&amp;lt;agregar&amp;gt;&amp;gt;&lt;/font&gt;" style="edgeLabel;html=1;align=center;verticalAlign=middle;resizable=0;points=[];" vertex="1" connectable="0" parent="uaT58myOgoMiZUyBuw0e-21">
          <mxGeometry x="0.102" y="-4" relative="1" as="geometry">
            <mxPoint x="-17" y="-17" as="offset" />
          </mxGeometry>
        </mxCell>
        <mxCell id="uaT58myOgoMiZUyBuw0e-64" style="edgeStyle=orthogonalEdgeStyle;rounded=0;orthogonalLoop=1;jettySize=auto;html=1;entryX=0.5;entryY=1;entryDx=0;entryDy=0;endArrow=diamondThin;endFill=0;endSize=20;dashed=1;dashPattern=12 12;" edge="1" parent="WIyWlLk6GJQsqaUBKTNV-1" source="uaT58myOgoMiZUyBuw0e-24" target="zkfFHV4jXpPFQw0GAbJ--0">
          <mxGeometry relative="1" as="geometry">
            <Array as="points">
              <mxPoint x="214" y="400" />
              <mxPoint x="214" y="400" />
            </Array>
          </mxGeometry>
        </mxCell>
        <mxCell id="uaT58myOgoMiZUyBuw0e-24" value="Monitor" style="swimlane;fontStyle=0;align=center;verticalAlign=top;childLayout=stackLayout;horizontal=1;startSize=26;horizontalStack=0;resizeParent=1;resizeLast=0;collapsible=1;marginBottom=0;rounded=0;shadow=0;strokeWidth=1;fontSize=14;" vertex="1" parent="WIyWlLk6GJQsqaUBKTNV-1">
          <mxGeometry x="69" y="464" width="290" height="260" as="geometry">
            <mxRectangle x="230" y="140" width="160" height="26" as="alternateBounds" />
          </mxGeometry>
        </mxCell>
        <mxCell id="uaT58myOgoMiZUyBuw0e-25" value="idMonitor: number" style="text;align=left;verticalAlign=top;spacingLeft=4;spacingRight=4;overflow=hidden;rotatable=0;points=[[0,0.5],[1,0.5]];portConstraint=eastwest;" vertex="1" parent="uaT58myOgoMiZUyBuw0e-24">
          <mxGeometry y="26" width="290" height="26" as="geometry" />
        </mxCell>
        <mxCell id="uaT58myOgoMiZUyBuw0e-26" value="marca: string  " style="text;align=left;verticalAlign=top;spacingLeft=4;spacingRight=4;overflow=hidden;rotatable=0;points=[[0,0.5],[1,0.5]];portConstraint=eastwest;" vertex="1" parent="uaT58myOgoMiZUyBuw0e-24">
          <mxGeometry y="52" width="290" height="26" as="geometry" />
        </mxCell>
        <mxCell id="uaT58myOgoMiZUyBuw0e-27" value="tamaño: string" style="text;align=left;verticalAlign=top;spacingLeft=4;spacingRight=4;overflow=hidden;rotatable=0;points=[[0,0.5],[1,0.5]];portConstraint=eastwest;" vertex="1" parent="uaT58myOgoMiZUyBuw0e-24">
          <mxGeometry y="78" width="290" height="26" as="geometry" />
        </mxCell>
        <mxCell id="uaT58myOgoMiZUyBuw0e-30" value="contadorMonitores: number" style="text;align=left;verticalAlign=top;spacingLeft=4;spacingRight=4;overflow=hidden;rotatable=0;points=[[0,0.5],[1,0.5]];portConstraint=eastwest;rounded=0;shadow=0;html=0;fontStyle=4" vertex="1" parent="uaT58myOgoMiZUyBuw0e-24">
          <mxGeometry y="104" width="290" height="26" as="geometry" />
        </mxCell>
        <mxCell id="uaT58myOgoMiZUyBuw0e-31" value="" style="line;html=1;strokeWidth=1;align=left;verticalAlign=middle;spacingTop=-1;spacingLeft=3;spacingRight=3;rotatable=0;labelPosition=right;points=[];portConstraint=eastwest;" vertex="1" parent="uaT58myOgoMiZUyBuw0e-24">
          <mxGeometry y="130" width="290" height="8" as="geometry" />
        </mxCell>
        <mxCell id="uaT58myOgoMiZUyBuw0e-32" value="(agregar los métodos get/set de cada atributo)" style="text;align=left;verticalAlign=top;spacingLeft=4;spacingRight=4;overflow=hidden;rotatable=0;points=[[0,0.5],[1,0.5]];portConstraint=eastwest;" vertex="1" parent="uaT58myOgoMiZUyBuw0e-24">
          <mxGeometry y="138" width="290" height="30" as="geometry" />
        </mxCell>
        <mxCell id="uaT58myOgoMiZUyBuw0e-33" value="toString(): string" style="text;align=left;verticalAlign=top;spacingLeft=4;spacingRight=4;overflow=hidden;rotatable=0;points=[[0,0.5],[1,0.5]];portConstraint=eastwest;rounded=0;shadow=0;html=0;" vertex="1" parent="uaT58myOgoMiZUyBuw0e-24">
          <mxGeometry y="168" width="290" height="26" as="geometry" />
        </mxCell>
        <mxCell id="uaT58myOgoMiZUyBuw0e-34" value="" style="line;html=1;strokeWidth=1;align=left;verticalAlign=middle;spacingTop=-1;spacingLeft=3;spacingRight=3;rotatable=0;labelPosition=right;points=[];portConstraint=eastwest;" vertex="1" parent="uaT58myOgoMiZUyBuw0e-24">
          <mxGeometry y="194" width="290" height="8" as="geometry" />
        </mxCell>
        <mxCell id="uaT58myOgoMiZUyBuw0e-35" value="Responsabilidades:" style="text;align=left;verticalAlign=top;spacingLeft=4;spacingRight=4;overflow=hidden;rotatable=0;points=[[0,0.5],[1,0.5]];portConstraint=eastwest;rounded=0;shadow=0;html=0;" vertex="1" parent="uaT58myOgoMiZUyBuw0e-24">
          <mxGeometry y="202" width="290" height="26" as="geometry" />
        </mxCell>
        <mxCell id="uaT58myOgoMiZUyBuw0e-36" value="-- Crear objetos de tipo Monitor" style="text;align=left;verticalAlign=top;spacingLeft=4;spacingRight=4;overflow=hidden;rotatable=0;points=[[0,0.5],[1,0.5]];portConstraint=eastwest;rounded=0;shadow=0;html=0;" vertex="1" parent="uaT58myOgoMiZUyBuw0e-24">
          <mxGeometry y="228" width="290" height="26" as="geometry" />
        </mxCell>
        <mxCell id="uaT58myOgoMiZUyBuw0e-37" value="DispositvoEntrada" style="swimlane;fontStyle=0;align=center;verticalAlign=top;childLayout=stackLayout;horizontal=1;startSize=26;horizontalStack=0;resizeParent=1;resizeLast=0;collapsible=1;marginBottom=0;rounded=0;shadow=0;strokeWidth=1;fontSize=14;" vertex="1" parent="WIyWlLk6GJQsqaUBKTNV-1">
          <mxGeometry x="639" y="364" width="290" height="180" as="geometry">
            <mxRectangle x="230" y="140" width="160" height="26" as="alternateBounds" />
          </mxGeometry>
        </mxCell>
        <mxCell id="uaT58myOgoMiZUyBuw0e-38" value="tipoEntrada: string" style="text;align=left;verticalAlign=top;spacingLeft=4;spacingRight=4;overflow=hidden;rotatable=0;points=[[0,0.5],[1,0.5]];portConstraint=eastwest;" vertex="1" parent="uaT58myOgoMiZUyBuw0e-37">
          <mxGeometry y="26" width="290" height="26" as="geometry" />
        </mxCell>
        <mxCell id="uaT58myOgoMiZUyBuw0e-39" value="marca: string  " style="text;align=left;verticalAlign=top;spacingLeft=4;spacingRight=4;overflow=hidden;rotatable=0;points=[[0,0.5],[1,0.5]];portConstraint=eastwest;" vertex="1" parent="uaT58myOgoMiZUyBuw0e-37">
          <mxGeometry y="52" width="290" height="26" as="geometry" />
        </mxCell>
        <mxCell id="uaT58myOgoMiZUyBuw0e-42" value="" style="line;html=1;strokeWidth=1;align=left;verticalAlign=middle;spacingTop=-1;spacingLeft=3;spacingRight=3;rotatable=0;labelPosition=right;points=[];portConstraint=eastwest;" vertex="1" parent="uaT58myOgoMiZUyBuw0e-37">
          <mxGeometry y="78" width="290" height="8" as="geometry" />
        </mxCell>
        <mxCell id="uaT58myOgoMiZUyBuw0e-43" value="(agregar los métodos get/set de cada atributo)" style="text;align=left;verticalAlign=top;spacingLeft=4;spacingRight=4;overflow=hidden;rotatable=0;points=[[0,0.5],[1,0.5]];portConstraint=eastwest;" vertex="1" parent="uaT58myOgoMiZUyBuw0e-37">
          <mxGeometry y="86" width="290" height="30" as="geometry" />
        </mxCell>
        <mxCell id="uaT58myOgoMiZUyBuw0e-45" value="" style="line;html=1;strokeWidth=1;align=left;verticalAlign=middle;spacingTop=-1;spacingLeft=3;spacingRight=3;rotatable=0;labelPosition=right;points=[];portConstraint=eastwest;" vertex="1" parent="uaT58myOgoMiZUyBuw0e-37">
          <mxGeometry y="116" width="290" height="8" as="geometry" />
        </mxCell>
        <mxCell id="uaT58myOgoMiZUyBuw0e-46" value="Responsabilidades:" style="text;align=left;verticalAlign=top;spacingLeft=4;spacingRight=4;overflow=hidden;rotatable=0;points=[[0,0.5],[1,0.5]];portConstraint=eastwest;rounded=0;shadow=0;html=0;" vertex="1" parent="uaT58myOgoMiZUyBuw0e-37">
          <mxGeometry y="124" width="290" height="26" as="geometry" />
        </mxCell>
        <mxCell id="uaT58myOgoMiZUyBuw0e-47" value="-- Crear objetos de tipo DispositivoEntrada" style="text;align=left;verticalAlign=top;spacingLeft=4;spacingRight=4;overflow=hidden;rotatable=0;points=[[0,0.5],[1,0.5]];portConstraint=eastwest;rounded=0;shadow=0;html=0;" vertex="1" parent="uaT58myOgoMiZUyBuw0e-37">
          <mxGeometry y="150" width="290" height="26" as="geometry" />
        </mxCell>
        <mxCell id="uaT58myOgoMiZUyBuw0e-69" style="edgeStyle=orthogonalEdgeStyle;rounded=0;orthogonalLoop=1;jettySize=auto;html=1;entryX=0.5;entryY=1;entryDx=0;entryDy=0;endArrow=block;endFill=0;endSize=20;" edge="1" parent="WIyWlLk6GJQsqaUBKTNV-1" source="uaT58myOgoMiZUyBuw0e-48" target="uaT58myOgoMiZUyBuw0e-37">
          <mxGeometry relative="1" as="geometry">
            <mxPoint x="584" y="550" as="targetPoint" />
            <Array as="points">
              <mxPoint x="584" y="580" />
              <mxPoint x="784" y="580" />
            </Array>
          </mxGeometry>
        </mxCell>
        <mxCell id="uaT58myOgoMiZUyBuw0e-71" style="edgeStyle=orthogonalEdgeStyle;rounded=0;orthogonalLoop=1;jettySize=auto;html=1;elbow=vertical;dashed=1;dashPattern=12 12;endArrow=none;endFill=0;" edge="1" parent="WIyWlLk6GJQsqaUBKTNV-1" source="uaT58myOgoMiZUyBuw0e-48">
          <mxGeometry relative="1" as="geometry">
            <mxPoint x="210" y="420" as="targetPoint" />
            <Array as="points">
              <mxPoint x="584" y="810" />
              <mxPoint x="399" y="810" />
              <mxPoint x="399" y="420" />
              <mxPoint x="361" y="420" />
            </Array>
          </mxGeometry>
        </mxCell>
        <mxCell id="uaT58myOgoMiZUyBuw0e-48" value="Raton" style="swimlane;fontStyle=0;align=center;verticalAlign=top;childLayout=stackLayout;horizontal=1;startSize=26;horizontalStack=0;resizeParent=1;resizeLast=0;collapsible=1;marginBottom=0;rounded=0;shadow=0;strokeWidth=1;fontSize=14;" vertex="1" parent="WIyWlLk6GJQsqaUBKTNV-1">
          <mxGeometry x="439" y="604" width="290" height="180" as="geometry">
            <mxRectangle x="230" y="140" width="160" height="26" as="alternateBounds" />
          </mxGeometry>
        </mxCell>
        <mxCell id="uaT58myOgoMiZUyBuw0e-49" value="idRaton: number" style="text;align=left;verticalAlign=top;spacingLeft=4;spacingRight=4;overflow=hidden;rotatable=0;points=[[0,0.5],[1,0.5]];portConstraint=eastwest;" vertex="1" parent="uaT58myOgoMiZUyBuw0e-48">
          <mxGeometry y="26" width="290" height="26" as="geometry" />
        </mxCell>
        <mxCell id="uaT58myOgoMiZUyBuw0e-50" value="contadorRatones: number" style="text;align=left;verticalAlign=top;spacingLeft=4;spacingRight=4;overflow=hidden;rotatable=0;points=[[0,0.5],[1,0.5]];portConstraint=eastwest;fontStyle=4" vertex="1" parent="uaT58myOgoMiZUyBuw0e-48">
          <mxGeometry y="52" width="290" height="26" as="geometry" />
        </mxCell>
        <mxCell id="uaT58myOgoMiZUyBuw0e-51" value="" style="line;html=1;strokeWidth=1;align=left;verticalAlign=middle;spacingTop=-1;spacingLeft=3;spacingRight=3;rotatable=0;labelPosition=right;points=[];portConstraint=eastwest;" vertex="1" parent="uaT58myOgoMiZUyBuw0e-48">
          <mxGeometry y="78" width="290" height="8" as="geometry" />
        </mxCell>
        <mxCell id="uaT58myOgoMiZUyBuw0e-52" value="toString(): string" style="text;align=left;verticalAlign=top;spacingLeft=4;spacingRight=4;overflow=hidden;rotatable=0;points=[[0,0.5],[1,0.5]];portConstraint=eastwest;" vertex="1" parent="uaT58myOgoMiZUyBuw0e-48">
          <mxGeometry y="86" width="290" height="30" as="geometry" />
        </mxCell>
        <mxCell id="uaT58myOgoMiZUyBuw0e-53" value="" style="line;html=1;strokeWidth=1;align=left;verticalAlign=middle;spacingTop=-1;spacingLeft=3;spacingRight=3;rotatable=0;labelPosition=right;points=[];portConstraint=eastwest;" vertex="1" parent="uaT58myOgoMiZUyBuw0e-48">
          <mxGeometry y="116" width="290" height="8" as="geometry" />
        </mxCell>
        <mxCell id="uaT58myOgoMiZUyBuw0e-54" value="Responsabilidades:" style="text;align=left;verticalAlign=top;spacingLeft=4;spacingRight=4;overflow=hidden;rotatable=0;points=[[0,0.5],[1,0.5]];portConstraint=eastwest;rounded=0;shadow=0;html=0;" vertex="1" parent="uaT58myOgoMiZUyBuw0e-48">
          <mxGeometry y="124" width="290" height="26" as="geometry" />
        </mxCell>
        <mxCell id="uaT58myOgoMiZUyBuw0e-55" value="-- Crear objetos de tipo Raton" style="text;align=left;verticalAlign=top;spacingLeft=4;spacingRight=4;overflow=hidden;rotatable=0;points=[[0,0.5],[1,0.5]];portConstraint=eastwest;rounded=0;shadow=0;html=0;" vertex="1" parent="uaT58myOgoMiZUyBuw0e-48">
          <mxGeometry y="150" width="290" height="20" as="geometry" />
        </mxCell>
        <mxCell id="uaT58myOgoMiZUyBuw0e-66" style="edgeStyle=orthogonalEdgeStyle;rounded=0;orthogonalLoop=1;jettySize=auto;html=1;exitX=0.5;exitY=1;exitDx=0;exitDy=0;entryX=0.5;entryY=1;entryDx=0;entryDy=0;endArrow=none;endFill=0;dashed=1;dashPattern=12 12;" edge="1" parent="WIyWlLk6GJQsqaUBKTNV-1" source="uaT58myOgoMiZUyBuw0e-56" target="uaT58myOgoMiZUyBuw0e-48">
          <mxGeometry relative="1" as="geometry">
            <Array as="points">
              <mxPoint x="954" y="810" />
              <mxPoint x="584" y="810" />
            </Array>
          </mxGeometry>
        </mxCell>
        <mxCell id="uaT58myOgoMiZUyBuw0e-70" style="edgeStyle=orthogonalEdgeStyle;rounded=0;orthogonalLoop=1;jettySize=auto;html=1;entryX=0.5;entryY=1;entryDx=0;entryDy=0;endArrow=block;endFill=0;endSize=20;" edge="1" parent="WIyWlLk6GJQsqaUBKTNV-1" source="uaT58myOgoMiZUyBuw0e-56" target="uaT58myOgoMiZUyBuw0e-37">
          <mxGeometry relative="1" as="geometry">
            <mxPoint x="954" y="550" as="targetPoint" />
            <Array as="points">
              <mxPoint x="954" y="580" />
              <mxPoint x="784" y="580" />
            </Array>
          </mxGeometry>
        </mxCell>
        <mxCell id="uaT58myOgoMiZUyBuw0e-56" value="Teclado" style="swimlane;fontStyle=0;align=center;verticalAlign=top;childLayout=stackLayout;horizontal=1;startSize=26;horizontalStack=0;resizeParent=1;resizeLast=0;collapsible=1;marginBottom=0;rounded=0;shadow=0;strokeWidth=1;fontSize=14;" vertex="1" parent="WIyWlLk6GJQsqaUBKTNV-1">
          <mxGeometry x="809" y="604" width="290" height="180" as="geometry">
            <mxRectangle x="230" y="140" width="160" height="26" as="alternateBounds" />
          </mxGeometry>
        </mxCell>
        <mxCell id="uaT58myOgoMiZUyBuw0e-57" value="idTeclado: number" style="text;align=left;verticalAlign=top;spacingLeft=4;spacingRight=4;overflow=hidden;rotatable=0;points=[[0,0.5],[1,0.5]];portConstraint=eastwest;" vertex="1" parent="uaT58myOgoMiZUyBuw0e-56">
          <mxGeometry y="26" width="290" height="26" as="geometry" />
        </mxCell>
        <mxCell id="uaT58myOgoMiZUyBuw0e-58" value="contadorTeclados: number" style="text;align=left;verticalAlign=top;spacingLeft=4;spacingRight=4;overflow=hidden;rotatable=0;points=[[0,0.5],[1,0.5]];portConstraint=eastwest;fontStyle=4" vertex="1" parent="uaT58myOgoMiZUyBuw0e-56">
          <mxGeometry y="52" width="290" height="26" as="geometry" />
        </mxCell>
        <mxCell id="uaT58myOgoMiZUyBuw0e-59" value="" style="line;html=1;strokeWidth=1;align=left;verticalAlign=middle;spacingTop=-1;spacingLeft=3;spacingRight=3;rotatable=0;labelPosition=right;points=[];portConstraint=eastwest;" vertex="1" parent="uaT58myOgoMiZUyBuw0e-56">
          <mxGeometry y="78" width="290" height="8" as="geometry" />
        </mxCell>
        <mxCell id="uaT58myOgoMiZUyBuw0e-60" value="toString(): string" style="text;align=left;verticalAlign=top;spacingLeft=4;spacingRight=4;overflow=hidden;rotatable=0;points=[[0,0.5],[1,0.5]];portConstraint=eastwest;" vertex="1" parent="uaT58myOgoMiZUyBuw0e-56">
          <mxGeometry y="86" width="290" height="30" as="geometry" />
        </mxCell>
        <mxCell id="uaT58myOgoMiZUyBuw0e-61" value="" style="line;html=1;strokeWidth=1;align=left;verticalAlign=middle;spacingTop=-1;spacingLeft=3;spacingRight=3;rotatable=0;labelPosition=right;points=[];portConstraint=eastwest;" vertex="1" parent="uaT58myOgoMiZUyBuw0e-56">
          <mxGeometry y="116" width="290" height="8" as="geometry" />
        </mxCell>
        <mxCell id="uaT58myOgoMiZUyBuw0e-62" value="Responsabilidades:" style="text;align=left;verticalAlign=top;spacingLeft=4;spacingRight=4;overflow=hidden;rotatable=0;points=[[0,0.5],[1,0.5]];portConstraint=eastwest;rounded=0;shadow=0;html=0;" vertex="1" parent="uaT58myOgoMiZUyBuw0e-56">
          <mxGeometry y="124" width="290" height="26" as="geometry" />
        </mxCell>
        <mxCell id="uaT58myOgoMiZUyBuw0e-63" value="-- Crear objetos de tipo Teclado" style="text;align=left;verticalAlign=top;spacingLeft=4;spacingRight=4;overflow=hidden;rotatable=0;points=[[0,0.5],[1,0.5]];portConstraint=eastwest;rounded=0;shadow=0;html=0;" vertex="1" parent="uaT58myOgoMiZUyBuw0e-56">
          <mxGeometry y="150" width="290" height="26" as="geometry" />
        </mxCell>
        <mxCell id="uaT58myOgoMiZUyBuw0e-72" value="&lt;font style=&quot;font-size: 13px;&quot;&gt;&amp;lt;&amp;lt;agregar&amp;gt;&amp;gt;&lt;/font&gt;" style="edgeLabel;html=1;align=center;verticalAlign=middle;resizable=0;points=[];" vertex="1" connectable="0" parent="WIyWlLk6GJQsqaUBKTNV-1">
          <mxGeometry x="300.00000000000006" y="390" as="geometry">
            <mxPoint x="-33" y="48" as="offset" />
          </mxGeometry>
        </mxCell>
        <mxCell id="uaT58myOgoMiZUyBuw0e-73" value="&lt;font style=&quot;font-size: 13px;&quot;&gt;&amp;lt;&amp;lt;agregar&amp;gt;&amp;gt;&lt;/font&gt;" style="edgeLabel;html=1;align=center;verticalAlign=middle;resizable=0;points=[];" vertex="1" connectable="0" parent="WIyWlLk6GJQsqaUBKTNV-1">
          <mxGeometry x="480.00000000000006" y="530" as="geometry">
            <mxPoint x="-33" y="48" as="offset" />
          </mxGeometry>
        </mxCell>
      </root>
    </mxGraphModel>
  </diagram>
</mxfile>
